<?xml version="1.0" encoding="UTF-8"?>
<!DOCTYPE svg PUBLIC "-//W3C//DTD SVG 1.1//EN" "http://www.w3.org/Graphics/SVG/1.1/DTD/svg11.dtd">
<svg xmlns="http://www.w3.org/2000/svg" xml:space="preserve" width="1795px" height="549px" version="1.1" style="shape-rendering:geometricPrecision; text-rendering:geometricPrecision; image-rendering:optimizeQuality; fill-rule:evenodd; clip-rule:evenodd"
viewBox="0 0 1848.05 564.8"
 xmlns:xlink="http://www.w3.org/1999/xlink">
 <defs>
  <style type="text/css">
   <![CDATA[
    .fil204 {fill:#5A7785}
    .fil203 {fill:#E21C2B}
    .fil202 {fill:#E21D2B}
    .fil201 {fill:#E21E2A}
    .fil200 {fill:#E21F2A}
    .fil199 {fill:#E31F2A}
    .fil198 {fill:#E3202A}
    .fil197 {fill:#E3212A}
    .fil195 {fill:#E32229}
    .fil196 {fill:#E3222A}
    .fil194 {fill:#E32329}
    .fil193 {fill:#E32429}
    .fil192 {fill:#E32529}
    .fil190 {fill:#E42628}
    .fil191 {fill:#E42629}
    .fil189 {fill:#E42728}
    .fil188 {fill:#E42828}
    .fil187 {fill:#E42928}
    .fil185 {fill:#E42A27}
    .fil186 {fill:#E42A28}
    .fil184 {fill:#E52B27}
    .fil183 {fill:#E52C27}
    .fil182 {fill:#E52D27}
    .fil181 {fill:#E52E27}
    .fil180 {fill:#E52F26}
    .fil179 {fill:#E53026}
    .fil178 {fill:#E53126}
    .fil177 {fill:#E63126}
    .fil176 {fill:#E63226}
    .fil175 {fill:#E63325}
    .fil174 {fill:#E63425}
    .fil173 {fill:#E63525}
    .fil172 {fill:#E63625}
    .fil171 {fill:#E63724}
    .fil170 {fill:#E73824}
    .fil169 {fill:#E73924}
    .fil168 {fill:#E73A24}
    .fil167 {fill:#E73B23}
    .fil166 {fill:#E73C23}
    .fil165 {fill:#E73D23}
    .fil164 {fill:#E83E23}
    .fil162 {fill:#E83F22}
    .fil163 {fill:#E83F23}
    .fil161 {fill:#E84022}
    .fil160 {fill:#E84122}
    .fil159 {fill:#E84222}
    .fil157 {fill:#E84321}
    .fil158 {fill:#E84322}
    .fil156 {fill:#E94421}
    .fil155 {fill:#E94521}
    .fil154 {fill:#E94621}
    .fil152 {fill:#E94720}
    .fil153 {fill:#E94721}
    .fil151 {fill:#E94820}
    .fil150 {fill:#E94920}
    .fil149 {fill:#EA4A20}
    .fil148 {fill:#EA4B20}
    .fil147 {fill:#EA4C1F}
    .fil146 {fill:#EA4D1F}
    .fil145 {fill:#EA4E1F}
    .fil144 {fill:#EA4F1F}
    .fil143 {fill:#EB501E}
    .fil142 {fill:#EB511E}
    .fil141 {fill:#EB521E}
    .fil140 {fill:#EB531E}
    .fil139 {fill:#EB541D}
    .fil138 {fill:#EB551D}
    .fil137 {fill:#EC561D}
    .fil135 {fill:#EC571C}
    .fil136 {fill:#EC571D}
    .fil134 {fill:#EC581C}
    .fil133 {fill:#EC591C}
    .fil132 {fill:#EC5A1C}
    .fil130 {fill:#EC5B1B}
    .fil131 {fill:#EC5B1C}
    .fil129 {fill:#ED5C1B}
    .fil128 {fill:#ED5D1B}
    .fil127 {fill:#ED5E1B}
    .fil126 {fill:#ED5F1B}
    .fil125 {fill:#ED601A}
    .fil124 {fill:#ED611A}
    .fil123 {fill:#ED621A}
    .fil122 {fill:#EE621A}
    .fil121 {fill:#EE631A}
    .fil120 {fill:#EE6419}
    .fil119 {fill:#EE6519}
    .fil118 {fill:#EE6619}
    .fil117 {fill:#EE6719}
    .fil116 {fill:#EF6818}
    .fil115 {fill:#EF6918}
    .fil114 {fill:#EF6A18}
    .fil113 {fill:#EF6B18}
    .fil112 {fill:#EF6C17}
    .fil111 {fill:#EF6D17}
    .fil110 {fill:#F06E17}
    .fil109 {fill:#F06F17}
    .fil107 {fill:#F07016}
    .fil108 {fill:#F07017}
    .fil106 {fill:#F07116}
    .fil105 {fill:#F07216}
    .fil104 {fill:#F07316}
    .fil103 {fill:#F07416}
    .fil102 {fill:#F17415}
    .fil101 {fill:#F17515}
    .fil100 {fill:#F17615}
    .fil99 {fill:#F17715}
    .fil97 {fill:#F17814}
    .fil98 {fill:#F17815}
    .fil96 {fill:#F17914}
    .fil95 {fill:#F17A14}
    .fil94 {fill:#F27B14}
    .fil93 {fill:#F27C14}
    .fil92 {fill:#F27D13}
    .fil91 {fill:#F27E13}
    .fil90 {fill:#F27F13}
    .fil89 {fill:#F28013}
    .fil88 {fill:#F38112}
    .fil87 {fill:#F38212}
    .fil86 {fill:#F38312}
    .fil85 {fill:#F38412}
    .fil84 {fill:#F38511}
    .fil83 {fill:#F38611}
    .fil82 {fill:#F48611}
    .fil81 {fill:#F48711}
    .fil80 {fill:#F48811}
    .fil79 {fill:#F48910}
    .fil78 {fill:#F48A10}
    .fil77 {fill:#F48B10}
    .fil76 {fill:#F48C10}
    .fil74 {fill:#F58D0F}
    .fil75 {fill:#F58D10}
    .fil73 {fill:#F58E0F}
    .fil72 {fill:#F58F0F}
    .fil71 {fill:#F5900F}
    .fil69 {fill:#F5910E}
    .fil70 {fill:#F5910F}
    .fil68 {fill:#F5920E}
    .fil67 {fill:#F6930E}
    .fil66 {fill:#F6940E}
    .fil65 {fill:#F6950D}
    .fil64 {fill:#F6960D}
    .fil63 {fill:#F6970D}
    .fil62 {fill:#F6980D}
    .fil61 {fill:#F7990C}
    .fil60 {fill:#F79A0C}
    .fil59 {fill:#F79B0C}
    .fil58 {fill:#F79C0C}
    .fil57 {fill:#F79D0B}
    .fil56 {fill:#F79E0B}
    .fil55 {fill:#F89F0B}
    .fil54 {fill:#F8A00B}
    .fil52 {fill:#F8A10A}
    .fil53 {fill:#F8A10B}
    .fil51 {fill:#F8A20A}
    .fil50 {fill:#F8A30A}
    .fil49 {fill:#F8A40A}
    .fil47 {fill:#F9A509}
    .fil48 {fill:#F9A50A}
    .fil46 {fill:#F9A609}
    .fil45 {fill:#F9A709}
    .fil44 {fill:#F9A809}
    .fil42 {fill:#F9A908}
    .fil43 {fill:#F9A909}
    .fil41 {fill:#F9AA08}
    .fil40 {fill:#FAAB08}
    .fil39 {fill:#FAAC08}
    .fil38 {fill:#FAAD08}
    .fil37 {fill:#FAAE07}
    .fil36 {fill:#FAAF07}
    .fil35 {fill:#FAB007}
    .fil34 {fill:#FBB107}
    .fil33 {fill:#FBB206}
    .fil32 {fill:#FBB306}
    .fil31 {fill:#FBB406}
    .fil30 {fill:#FBB506}
    .fil29 {fill:#FBB605}
    .fil28 {fill:#FBB705}
    .fil27 {fill:#FCB705}
    .fil26 {fill:#FCB805}
    .fil25 {fill:#FCB905}
    .fil24 {fill:#FCBA04}
    .fil23 {fill:#FCBB04}
    .fil2 {fill:#FCBC04}
    .fil3 {fill:#FCBD04}
    .fil5 {fill:#FDBE03}
    .fil4 {fill:#FDBE04}
    .fil6 {fill:#FDBF03}
    .fil7 {fill:#FDC003}
    .fil8 {fill:#FDC103}
    .fil10 {fill:#FDC202}
    .fil9 {fill:#FDC203}
    .fil11 {fill:#FEC302}
    .fil12 {fill:#FEC402}
    .fil13 {fill:#FEC502}
    .fil15 {fill:#FEC601}
    .fil14 {fill:#FEC602}
    .fil16 {fill:#FEC701}
    .fil17 {fill:#FEC801}
    .fil18 {fill:#FEC901}
    .fil19 {fill:#FFC901}
    .fil20 {fill:#FFCA01}
    .fil21 {fill:#FFCB00}
    .fil22 {fill:#FFCC00}
    .fil1 {fill:#5A7785;fill-rule:nonzero}
    .fil0 {fill:#5A7785;fill-rule:nonzero}
   ]]>
  </style>
     <clipPath id="id0">
      <path d="M829.2 132.28l44.96 -132.28 -12.72 0 -44.97 132.28 12.73 0zm-236.89 0l44.97 -132.28 -35.31 0 -44.97 132.28 35.31 0zm45.56 0l44.97 -132.28 -26.01 0 -44.91 132.28 25.95 0zm42.91 0l44.96 -132.28 -23.31 0 -44.95 132.28 23.3 0zm41.57 0l44.96 -132.28 -21.96 0 -44.97 132.28 21.97 0zm38.92 0l44.96 -132.28 -19.31 0 -44.96 132.28 19.31 0zm35.6 0l44.96 -132.28 -15.99 0 -44.97 132.28 16 0z"/>
     </clipPath>
 </defs>
 <g id="N">
  <metadata id="CorelCorpID_0Corel-Layer"/>
  <g id="_2783477373312">
   <path class="fil0" d="M851.87 445.08l-38.43 117.79 26.6 0 16.08 -49.28 43.63 0 -16.08 49.28 26.43 0 38.43 -117.79 -26.43 0 -14.76 45.26 -43.64 0 14.77 -45.26 -26.6 0zm149.5 30.41c-27.3,0 -51.14,17.65 -60.15,45.26 -9,27.61 4.76,44.04 29.62,44.04 22.77,0 49.53,-14.33 59.74,-45.61 8.38,-25.69 -3.14,-43.69 -29.21,-43.69zm-6.86 18.87c12,0 12.65,12.94 8.48,25.69 -5.01,15.38 -14.98,25.69 -25.24,25.69 -11.3,0 -13.79,-11.01 -9,-25.69 4.1,-12.58 13.07,-25.69 25.76,-25.69zm38.09 68.16c5.17,0.7 17.4,1.57 29.22,1.57 17.38,0 50.92,-2.09 58.85,-26.38 3.76,-11.54 -2.25,-18.7 -14.25,-20.8l0.11 -0.35c9.09,-1.75 19.84,-7.52 23.43,-18.53 6.61,-20.27 -20.51,-21.84 -34.94,-21.84 -13.22,0 -28.22,1.22 -34.94,2.09l-27.48 84.24zm48.71 -69.38c3.07,-0.35 5.62,-0.7 9.27,-0.7 10.61,0 13.99,3.5 12.16,9.09 -2.11,6.46 -9.8,9.26 -20.4,9.26l-6.78 0 5.75 -17.65zm-10.94 33.03l7.64 0c12.35,0 18.16,3.5 15.77,10.84 -2.74,8.38 -12.64,11.01 -21.68,11.01 -3.99,0 -6.08,0 -8.75,-0.35l7.02 -21.5zm127.27 -50.68c-27.29,0 -51.13,17.65 -60.14,45.26 -9.01,27.61 4.76,44.04 29.62,44.04 22.77,0 49.52,-14.33 59.73,-45.61 8.38,-25.69 -3.13,-43.69 -29.21,-43.69zm-6.85 18.87c11.99,0 12.64,12.94 8.48,25.69 -5.02,15.38 -14.99,25.69 -25.24,25.69 -11.3,0 -13.8,-11.01 -9.01,-25.69 4.11,-12.58 13.08,-25.69 25.77,-25.69zm105.89 46.84c-4.51,1.57 -9.72,2.62 -15.98,2.62 -12.86,0 -20.62,-8.21 -15.48,-23.94 4.38,-13.98 16.67,-23.94 30.58,-23.94 6.96,0 11.25,1.22 13.92,2.62l10.62 -19.75c-4.88,-2.1 -12.13,-3.32 -19.08,-3.32 -31.65,0 -55.35,20.45 -63.51,45.44 -8.78,26.91 3.31,43.69 30.78,43.69 10.08,0 19.52,-1.75 24.89,-3.85l3.26 -19.57zm32.46 -63.79l-6.61 20.27 24.68 0 -21.27 65.19 26.6 0 21.27 -65.19 24.69 0 6.61 -20.27 -75.97 0zm87.62 0l-27.88 85.46 32.16 0c10.24,-13.28 21.52,-28.14 30.79,-40.02 6.1,-8.04 10.01,-13.63 16.39,-23.07l0.7 0c-6.8,18.18 -9.32,23.77 -13.66,37.05l-8.49 26.04 25.03 0 27.88 -85.46 -32.33 0 -28.49 36.7c-6.1,8.04 -10.53,14.68 -17.72,24.47l-0.64 -0.18c4.46,-11.53 8.29,-21.14 12.74,-34.77l8.55 -26.22 -25.03 0z"/>
   <path class="fil1" d="M903.22 294.19l-38.63 113.73 31.21 0 36.05 -40.16c11.37,-12.82 22.63,-25.98 33.26,-40.66l0.34 0c-6.72,16.7 -10.71,28.68 -16.12,44.54l-12.35 36.28 24.13 0 38.63 -113.73 -28.52 0 -39.68 45.22c-11.47,13.5 -23.08,26.83 -34.53,41.34l-0.32 -0.16c6.34,-16.37 12.28,-32.4 18.26,-49.78l12.4 -36.62 -24.13 0zm146.82 29.19c-11.48,0 -21.5,2.7 -30.12,8.44 -16.47,10.8 -27.23,37.63 -29.43,52.31 -2.76,18.39 8.95,25.82 31.23,25.82 17.71,0 46.83,-6.25 50.24,-29.03 1.57,-10.46 -6.69,-16.2 -15.81,-17.21l0.05 -0.34c8.88,-1.85 21.2,-8.6 22.79,-19.23 2.07,-13.84 -8.54,-20.76 -28.78,-20.76l-0.17 0zm-4.22 16.88c5.06,0 8.76,2.36 8.1,6.75 -0.58,3.88 -4.38,6.75 -9.05,8.6 -6.45,2.53 -14.39,3.71 -21.1,4.56 4.39,-10.13 10.41,-19.91 21.88,-19.91l0.17 0zm-12.04 33.07c6.75,0 13.05,1.86 12.02,8.77 -0.94,6.25 -8.54,10.8 -18.83,10.8 -8.78,0 -11.37,-4.05 -10.44,-10.29 0.35,-2.36 1.24,-4.89 1.91,-7.09 3.33,-0.84 9.44,-2.19 15.17,-2.19l0.17 0zm128.63 34.59c1.28,-10.8 5.22,-27 8.89,-37.97l14.42 -42.18c-6.9,-2.36 -17.9,-4.39 -28.2,-4.39 -42.52,0 -67.11,27.85 -71.4,56.53 -2.71,18.06 7.14,30.04 22.83,30.04 10.63,0 22.79,-4.56 33.26,-19.24l0.33 0c-1.44,6.24 -2.85,12.32 -3.75,17.21l23.62 0zm-13.05 -48.09c-7.16,21.94 -18.81,29.87 -26.57,29.87 -7.26,0 -10.45,-5.74 -9.19,-14.18 2.45,-16.36 17.73,-32.73 34.1,-32.73 2.87,0 5.18,0.34 6.98,0.67l-5.32 16.37zm60 -34.42l-28.05 82.51 25.31 0 11.17 -32.9 27.84 0 -11.17 32.9 25.31 0 28.05 -82.51 -25.31 0 -10.21 29.86 -27.67 0 10.04 -29.86 -25.31 0zm113.89 84.54c29.53,0 55.55,-19.41 60.25,-50.79 3.19,-21.26 -10.84,-35.78 -33.45,-35.78 -30.71,0 -55.57,21.77 -59.89,50.62 -3.49,23.29 11.83,35.95 32.92,35.95l0.17 0zm6.28 -19.41c-8.94,0 -14.27,-6.07 -12.66,-16.87 1.85,-12.32 11.71,-30.88 27.24,-30.88 11.3,0 13.82,9.11 12.58,17.38 -2.07,13.83 -12.65,30.37 -26.99,30.37l-0.17 0zm121.76 -67.16c-11.47,0 -21.49,2.7 -30.11,8.44 -16.47,10.8 -27.24,37.63 -29.44,52.31 -2.75,18.39 8.96,25.82 31.24,25.82 17.71,0 46.83,-6.25 50.24,-29.03 1.57,-10.46 -6.69,-16.2 -15.82,-17.21l0.05 -0.34c8.89,-1.85 21.2,-8.6 22.8,-19.23 2.07,-13.84 -8.54,-20.76 -28.79,-20.76l-0.17 0zm-4.21 16.88c5.06,0 8.76,2.36 8.1,6.75 -0.58,3.88 -4.38,6.75 -9.05,8.6 -6.45,2.53 -14.39,3.71 -21.1,4.56 4.38,-10.13 10.41,-19.91 21.88,-19.91l0.17 0zm-12.04 33.07c6.75,0 13.05,1.86 12.02,8.77 -0.94,6.25 -8.54,10.8 -18.83,10.8 -8.78,0 -11.38,-4.05 -10.44,-10.29 0.35,-2.36 1.24,-4.89 1.9,-7.09 3.34,-0.84 9.44,-2.19 15.18,-2.19l0.17 0zm114.73 12.49c-5.03,2.02 -10.88,3.88 -18.98,3.88 -9.78,0 -17.22,-5.57 -15.4,-17.72 2.2,-14.68 15.27,-28.69 34.16,-28.69 5.91,0 9.64,1.02 12.64,2.37l9.1 -19.07c-4.13,-1.69 -10.82,-3.21 -18.41,-3.21 -33.25,0 -60.35,22.11 -64.72,51.3 -3.51,23.45 11.42,35.27 32.35,35.27 10.96,0 20.55,-2.03 27.08,-5.07l2.18 -19.06zm39.42 -60.41l-28.05 82.51 24.63 0 11.74 -34.42 2.19 0c8.95,0 11.76,4.89 13.42,15.18 0.89,7.6 1.49,14.85 2.69,19.24l25.14 0c-1.5,-5.74 -2.24,-14.34 -3.01,-21.6 -0.81,-11.47 -3.71,-21.43 -11.49,-24.63l43.56 -36.28 -30.2 0 -34.34 33.24 -2.7 0 11.22 -33.24 -24.8 0zm90.78 0l-15.6 45.56c-1.85,5.57 -3.06,10.29 -3.72,14.68 -2.55,17.04 5.48,24.3 19.48,24.3 10.6,0 22.11,-4.9 33.08,-16.2l0.34 0 -3.98 14.17 22.64 0c2.1,-7.25 4.96,-16.2 8.57,-26.83l18.81 -55.68 -25.32 0 -12.03 35.1c-6.08,18.05 -17.31,28.85 -26.4,28.85 -7.09,0 -8.71,-4.72 -7.85,-10.46 0.43,-2.87 1.52,-6.75 2.69,-10.13l14.57 -43.36 -25.28 0zm150.05 59.39c-7.42,3.38 -16.52,5.57 -25.97,5.57 -7.6,0 -13.37,-2.02 -16.42,-6.41 -1.34,-2.36 -1.82,-5.91 -1.63,-8.27 36.29,1.01 58.67,-6.41 61.72,-26.83 2.51,-16.7 -9.85,-25.48 -27.23,-25.48 -30.88,0 -54.53,24.98 -58.32,50.29 -3.43,22.95 8.07,36.28 32.7,36.28 9.28,0 23.2,-1.69 34.31,-7.09l0.84 -18.06zm-6.32 -36.61c-1.09,7.25 -11.01,9.28 -32.42,9.11 2.26,-6.07 10.65,-15.86 23.47,-15.86 6.08,0 9.53,2.87 8.97,6.58l-0.02 0.17z"/>
   <g>
    <g style="clip-path:url(#id0)">
     <polygon class="fil2" points="557,0 557.86,0 557.86,132.28 557,132.28 "/>
     <polygon id="1" class="fil3" points="557.29,0 559,0 559,132.28 557.29,132.28 "/>
     <polygon id="2" class="fil4" points="558.43,0 560.14,0 560.14,132.28 558.43,132.28 "/>
     <polygon id="3" class="fil5" points="559.57,0 561.28,0 561.28,132.28 559.57,132.28 "/>
     <polygon id="4" class="fil6" points="560.71,0 562.42,0 562.42,132.28 560.71,132.28 "/>
     <polygon id="5" class="fil7" points="561.85,0 563.56,0 563.56,132.28 561.85,132.28 "/>
     <polygon id="6" class="fil7" points="562.99,0 564.7,0 564.7,132.28 562.99,132.28 "/>
     <polygon id="7" class="fil8" points="564.13,0 565.84,0 565.84,132.28 564.13,132.28 "/>
     <polygon id="8" class="fil9" points="565.27,0 566.98,0 566.98,132.28 565.27,132.28 "/>
     <polygon id="9" class="fil10" points="566.41,0 568.12,0 568.12,132.28 566.41,132.28 "/>
     <polygon id="10" class="fil11" points="567.55,0 569.26,0 569.26,132.28 567.55,132.28 "/>
     <polygon id="11" class="fil12" points="568.69,0 570.4,0 570.4,132.28 568.69,132.28 "/>
     <polygon id="12" class="fil12" points="569.83,0 571.54,0 571.54,132.28 569.83,132.28 "/>
     <polygon id="13" class="fil13" points="570.97,0 572.68,0 572.68,132.28 570.97,132.28 "/>
     <polygon id="14" class="fil14" points="572.11,0 573.82,0 573.82,132.28 572.11,132.28 "/>
     <polygon id="15" class="fil15" points="573.25,0 574.96,0 574.96,132.28 573.25,132.28 "/>
     <polygon id="16" class="fil16" points="574.38,0 576.09,0 576.1,132.28 574.39,132.28 "/>
     <polygon id="17" class="fil17" points="575.53,0 577.23,0 577.24,132.28 575.53,132.28 "/>
     <polygon id="18" class="fil18" points="576.66,0 578.37,0 578.38,132.28 576.67,132.28 "/>
     <polygon id="19" class="fil19" points="577.8,0 579.51,0 579.52,132.28 577.81,132.28 "/>
     <polygon id="20" class="fil20" points="578.94,0 580.65,0 580.66,132.28 578.95,132.28 "/>
     <polygon id="21" class="fil21" points="580.08,0 581.79,0 581.8,132.28 580.09,132.28 "/>
     <polygon id="22" class="fil21" points="581.22,0 582.93,0 582.94,132.28 581.23,132.28 "/>
     <polygon id="23" class="fil22" points="582.36,0 584.07,0 584.08,132.28 582.37,132.28 "/>
     <polygon id="24" class="fil21" points="583.5,0 585.21,0 585.22,132.28 583.51,132.28 "/>
     <polygon id="25" class="fil21" points="584.64,0 586.35,0 586.36,132.28 584.65,132.28 "/>
     <polygon id="26" class="fil20" points="585.78,0 587.49,0 587.49,132.28 585.79,132.28 "/>
     <polygon id="27" class="fil19" points="586.92,0 588.63,0 588.64,132.28 586.93,132.28 "/>
     <polygon id="28" class="fil18" points="588.06,0 589.77,0 589.78,132.28 588.07,132.28 "/>
     <polygon id="29" class="fil17" points="589.2,0 590.91,0 590.91,132.28 589.2,132.28 "/>
     <polygon id="30" class="fil16" points="590.34,0 592.05,0 592.05,132.28 590.34,132.28 "/>
     <polygon id="31" class="fil15" points="591.48,0 593.19,0 593.2,132.28 591.49,132.28 "/>
     <polygon id="32" class="fil14" points="592.62,0 594.33,0 594.33,132.28 592.62,132.28 "/>
     <polygon id="33" class="fil13" points="593.76,0 595.47,0 595.47,132.28 593.76,132.28 "/>
     <polygon id="34" class="fil12" points="594.9,0 596.61,0 596.61,132.28 594.9,132.28 "/>
     <polygon id="35" class="fil12" points="596.04,0 597.75,0 597.75,132.28 596.04,132.28 "/>
     <polygon id="36" class="fil11" points="597.18,0 598.89,0 598.89,132.28 597.18,132.28 "/>
     <polygon id="37" class="fil10" points="598.32,0 600.03,0 600.03,132.28 598.32,132.28 "/>
     <polygon id="38" class="fil9" points="599.46,0 601.17,0 601.17,132.28 599.46,132.28 "/>
     <polygon id="39" class="fil8" points="600.6,0 602.31,0 602.31,132.28 600.6,132.28 "/>
     <polygon id="40" class="fil7" points="601.74,0 603.45,0 603.45,132.28 601.74,132.28 "/>
     <polygon id="41" class="fil7" points="602.88,0 604.59,0 604.59,132.28 602.88,132.28 "/>
     <polygon id="42" class="fil6" points="604.02,0 605.73,0 605.73,132.28 604.02,132.28 "/>
     <polygon id="43" class="fil5" points="605.16,0 606.87,0 606.87,132.28 605.16,132.28 "/>
     <polygon id="44" class="fil4" points="606.3,0 608.01,0 608.01,132.28 606.3,132.28 "/>
     <polygon id="45" class="fil3" points="607.44,0 609.15,0 609.15,132.28 607.44,132.28 "/>
     <polygon id="46" class="fil2" points="608.58,0 610.29,0 610.29,132.28 608.58,132.28 "/>
     <polygon id="47" class="fil23" points="609.72,0 611.43,0 611.43,132.28 609.72,132.28 "/>
     <polygon id="48" class="fil23" points="610.86,0 612.57,0 612.57,132.28 610.86,132.28 "/>
     <polygon id="49" class="fil24" points="612,0 613.71,0 613.71,132.28 612,132.28 "/>
     <polygon id="50" class="fil25" points="613.14,0 614.85,0 614.85,132.28 613.14,132.28 "/>
     <polygon id="51" class="fil25" points="614.28,0 615.99,0 615.99,132.28 614.28,132.28 "/>
     <polygon id="52" class="fil26" points="615.42,0 617.13,0 617.13,132.28 615.42,132.28 "/>
     <polygon id="53" class="fil27" points="616.56,0 618.27,0 618.27,132.28 616.56,132.28 "/>
     <polygon id="54" class="fil28" points="617.7,0 619.41,0 619.41,132.28 617.7,132.28 "/>
     <polygon id="55" class="fil29" points="618.84,0 620.55,0 620.55,132.28 618.84,132.28 "/>
     <polygon id="56" class="fil30" points="619.98,0 621.69,0 621.69,132.28 619.98,132.28 "/>
     <polygon id="57" class="fil30" points="621.12,0 622.83,0 622.83,132.28 621.12,132.28 "/>
     <polygon id="58" class="fil31" points="622.26,0 623.97,0 623.97,132.28 622.26,132.28 "/>
     <polygon id="59" class="fil32" points="623.4,0 625.11,0 625.11,132.28 623.4,132.28 "/>
     <polygon id="60" class="fil33" points="624.54,0 626.25,0 626.25,132.28 624.54,132.28 "/>
     <polygon id="61" class="fil33" points="625.68,0 627.39,0 627.39,132.28 625.68,132.28 "/>
     <polygon id="62" class="fil34" points="626.82,0 628.53,0 628.53,132.28 626.82,132.28 "/>
     <polygon id="63" class="fil35" points="627.96,0 629.67,0 629.67,132.28 627.96,132.28 "/>
     <polygon id="64" class="fil35" points="629.1,0 630.81,0 630.81,132.28 629.1,132.28 "/>
     <polygon id="65" class="fil36" points="630.24,0 631.95,0 631.95,132.28 630.24,132.28 "/>
     <polygon id="66" class="fil37" points="631.38,0 633.09,0 633.09,132.28 631.38,132.28 "/>
     <polygon id="67" class="fil37" points="632.52,0 634.23,0 634.23,132.28 632.52,132.28 "/>
     <polygon id="68" class="fil38" points="633.66,0 635.37,0 635.37,132.28 633.66,132.28 "/>
     <polygon id="69" class="fil39" points="634.8,0 636.51,0 636.51,132.28 634.8,132.28 "/>
     <polygon id="70" class="fil39" points="635.94,0 637.65,0 637.65,132.28 635.94,132.28 "/>
     <polygon id="71" class="fil40" points="637.08,0 638.79,0 638.79,132.28 637.08,132.28 "/>
     <polygon id="72" class="fil41" points="638.22,0 639.92,0 639.93,132.28 638.22,132.28 "/>
     <polygon id="73" class="fil42" points="639.36,0 641.06,0 641.07,132.28 639.36,132.28 "/>
     <polygon id="74" class="fil43" points="640.5,0 642.21,0 642.21,132.28 640.5,132.28 "/>
     <polygon id="75" class="fil44" points="641.63,0 643.34,0 643.35,132.28 641.64,132.28 "/>
     <polygon id="76" class="fil45" points="642.77,0 644.48,0 644.49,132.28 642.78,132.28 "/>
     <polygon id="77" class="fil45" points="643.91,0 645.62,0 645.63,132.28 643.92,132.28 "/>
     <polygon id="78" class="fil46" points="645.05,0 646.76,0 646.77,132.28 645.06,132.28 "/>
     <polygon id="79" class="fil47" points="646.19,0 647.9,0 647.91,132.28 646.2,132.28 "/>
     <polygon id="80" class="fil48" points="647.33,0 649.04,0 649.05,132.28 647.34,132.28 "/>
     <polygon id="81" class="fil49" points="648.47,0 650.18,0 650.19,132.28 648.48,132.28 "/>
     <polygon id="82" class="fil50" points="649.61,0 651.32,0 651.33,132.28 649.62,132.28 "/>
     <polygon id="83" class="fil50" points="650.75,0 652.46,0 652.46,132.28 650.76,132.28 "/>
     <polygon id="84" class="fil51" points="651.89,0 653.6,0 653.61,132.28 651.9,132.28 "/>
     <polygon id="85" class="fil52" points="653.03,0 654.74,0 654.75,132.28 653.04,132.28 "/>
     <polygon id="86" class="fil53" points="654.17,0 655.88,0 655.88,132.28 654.17,132.28 "/>
     <polygon id="87" class="fil54" points="655.31,0 657.02,0 657.02,132.28 655.32,132.28 "/>
     <polygon id="88" class="fil55" points="656.45,0 658.16,0 658.16,132.28 656.46,132.28 "/>
     <polygon id="89" class="fil56" points="657.59,0 659.3,0 659.3,132.28 657.59,132.28 "/>
     <polygon id="90" class="fil56" points="658.73,0 660.44,0 660.44,132.28 658.73,132.28 "/>
     <polygon id="91" class="fil57" points="659.87,0 661.58,0 661.58,132.28 659.87,132.28 "/>
     <polygon id="92" class="fil58" points="661.01,0 662.72,0 662.72,132.28 661.01,132.28 "/>
     <polygon id="93" class="fil58" points="662.15,0 663.86,0 663.86,132.28 662.15,132.28 "/>
     <polygon id="94" class="fil59" points="663.29,0 665,0 665,132.28 663.29,132.28 "/>
     <polygon id="95" class="fil60" points="664.43,0 666.14,0 666.14,132.28 664.43,132.28 "/>
     <polygon id="96" class="fil60" points="665.57,0 667.28,0 667.28,132.28 665.57,132.28 "/>
     <polygon id="97" class="fil61" points="666.71,0 668.42,0 668.42,132.28 666.71,132.28 "/>
     <polygon id="98" class="fil62" points="667.85,0 669.56,0 669.56,132.28 667.85,132.28 "/>
     <polygon id="99" class="fil62" points="668.99,0 670.7,0 670.7,132.28 668.99,132.28 "/>
     <polygon id="100" class="fil63" points="670.13,0 671.84,0 671.84,132.28 670.13,132.28 "/>
     <polygon id="101" class="fil64" points="671.27,0 672.98,0 672.98,132.28 671.27,132.28 "/>
     <polygon id="102" class="fil65" points="672.41,0 674.12,0 674.12,132.28 672.41,132.28 "/>
     <polygon id="103" class="fil65" points="673.55,0 675.26,0 675.26,132.28 673.55,132.28 "/>
     <polygon id="104" class="fil66" points="674.69,0 676.4,0 676.4,132.28 674.69,132.28 "/>
     <polygon id="105" class="fil67" points="675.83,0 677.54,0 677.54,132.28 675.83,132.28 "/>
     <polygon id="106" class="fil67" points="676.97,0 678.68,0 678.68,132.28 676.97,132.28 "/>
     <polygon id="107" class="fil68" points="678.11,0 679.82,0 679.82,132.28 678.11,132.28 "/>
     <polygon id="108" class="fil69" points="679.25,0 680.96,0 680.96,132.28 679.25,132.28 "/>
     <polygon id="109" class="fil70" points="680.39,0 682.1,0 682.1,132.28 680.39,132.28 "/>
     <polygon id="110" class="fil71" points="681.53,0 683.24,0 683.24,132.28 681.53,132.28 "/>
     <polygon id="111" class="fil72" points="682.67,0 684.38,0 684.38,132.28 682.67,132.28 "/>
     <polygon id="112" class="fil72" points="683.81,0 685.52,0 685.52,132.28 683.81,132.28 "/>
     <polygon id="113" class="fil73" points="684.95,0 686.66,0 686.66,132.28 684.95,132.28 "/>
     <polygon id="114" class="fil74" points="686.09,0 687.8,0 687.8,132.28 686.09,132.28 "/>
     <polygon id="115" class="fil75" points="687.23,0 688.94,0 688.94,132.28 687.23,132.28 "/>
     <polygon id="116" class="fil76" points="688.37,0 690.08,0 690.08,132.28 688.37,132.28 "/>
     <polygon id="117" class="fil77" points="689.51,0 691.22,0 691.22,132.28 689.51,132.28 "/>
     <polygon id="118" class="fil78" points="690.65,0 692.36,0 692.36,132.28 690.65,132.28 "/>
     <polygon id="119" class="fil78" points="691.79,0 693.5,0 693.5,132.28 691.79,132.28 "/>
     <polygon id="120" class="fil79" points="692.93,0 694.64,0 694.64,132.28 692.93,132.28 "/>
     <polygon id="121" class="fil80" points="694.07,0 695.78,0 695.78,132.28 694.07,132.28 "/>
     <polygon id="122" class="fil80" points="695.21,0 696.92,0 696.92,132.28 695.21,132.28 "/>
     <polygon id="123" class="fil81" points="696.35,0 698.06,0 698.06,132.28 696.35,132.28 "/>
     <polygon id="124" class="fil82" points="697.49,0 699.2,0 699.2,132.28 697.49,132.28 "/>
     <polygon id="125" class="fil83" points="698.63,0 700.34,0 700.34,132.28 698.63,132.28 "/>
     <polygon id="126" class="fil84" points="699.77,0 701.48,0 701.48,132.28 699.77,132.28 "/>
     <polygon id="127" class="fil85" points="700.91,0 702.62,0 702.62,132.28 700.91,132.28 "/>
     <polygon id="128" class="fil85" points="702.05,0 703.76,0 703.76,132.28 702.05,132.28 "/>
     <polygon id="129" class="fil86" points="703.18,0 704.89,0 704.9,132.28 703.19,132.28 "/>
     <polygon id="130" class="fil87" points="704.33,0 706.04,0 706.04,132.28 704.33,132.28 "/>
     <polygon id="131" class="fil88" points="705.47,0 707.18,0 707.18,132.28 705.47,132.28 "/>
     <polygon id="132" class="fil88" points="706.6,0 708.31,0 708.32,132.28 706.61,132.28 "/>
     <polygon id="133" class="fil89" points="707.74,0 709.45,0 709.46,132.28 707.75,132.28 "/>
     <polygon id="134" class="fil90" points="708.89,0 710.59,0 710.6,132.28 708.89,132.28 "/>
     <polygon id="135" class="fil90" points="710.02,0 711.73,0 711.74,132.28 710.03,132.28 "/>
     <polygon id="136" class="fil91" points="711.16,0 712.87,0 712.88,132.28 711.17,132.28 "/>
     <polygon id="137" class="fil92" points="712.3,0 714.01,0 714.02,132.28 712.31,132.28 "/>
     <polygon id="138" class="fil92" points="713.44,0 715.15,0 715.16,132.28 713.45,132.28 "/>
     <polygon id="139" class="fil93" points="714.58,0 716.29,0 716.3,132.28 714.59,132.28 "/>
     <polygon id="140" class="fil94" points="715.72,0 717.43,0 717.44,132.28 715.73,132.28 "/>
     <polygon id="141" class="fil94" points="716.86,0 718.57,0 718.58,132.28 716.87,132.28 "/>
     <polygon id="142" class="fil95" points="718,0 719.71,0 719.72,132.28 718.01,132.28 "/>
     <polygon id="143" class="fil96" points="719.14,0 720.85,0 720.85,132.28 719.14,132.28 "/>
     <polygon id="144" class="fil97" points="720.28,0 721.99,0 722,132.28 720.29,132.28 "/>
     <polygon id="145" class="fil98" points="721.42,0 723.13,0 723.13,132.28 721.42,132.28 "/>
     <polygon id="146" class="fil99" points="722.56,0 724.27,0 724.27,132.28 722.56,132.28 "/>
     <polygon id="147" class="fil100" points="723.7,0 725.41,0 725.41,132.28 723.7,132.28 "/>
     <polygon id="148" class="fil100" points="724.84,0 726.55,0 726.55,132.28 724.84,132.28 "/>
     <polygon id="149" class="fil101" points="725.98,0 727.69,0 727.69,132.28 725.98,132.28 "/>
     <polygon id="150" class="fil102" points="727.12,0 728.83,0 728.83,132.28 727.12,132.28 "/>
     <polygon id="151" class="fil103" points="728.26,0 729.97,0 729.97,132.28 728.26,132.28 "/>
     <polygon id="152" class="fil104" points="729.4,0 731.11,0 731.11,132.28 729.4,132.28 "/>
     <polygon id="153" class="fil105" points="730.54,0 732.25,0 732.25,132.28 730.54,132.28 "/>
     <polygon id="154" class="fil105" points="731.68,0 733.39,0 733.39,132.28 731.68,132.28 "/>
     <polygon id="155" class="fil106" points="732.82,0 734.53,0 734.53,132.28 732.82,132.28 "/>
     <polygon id="156" class="fil107" points="733.96,0 735.67,0 735.67,132.28 733.96,132.28 "/>
     <polygon id="157" class="fil108" points="735.1,0 736.81,0 736.81,132.28 735.1,132.28 "/>
     <polygon id="158" class="fil109" points="736.24,0 737.95,0 737.95,132.28 736.24,132.28 "/>
     <polygon id="159" class="fil110" points="737.38,0 739.09,0 739.09,132.28 737.38,132.28 "/>
     <polygon id="160" class="fil111" points="738.52,0 740.23,0 740.23,132.28 738.52,132.28 "/>
     <polygon id="161" class="fil111" points="739.66,0 741.37,0 741.37,132.28 739.66,132.28 "/>
     <polygon id="162" class="fil112" points="740.8,0 742.51,0 742.51,132.28 740.8,132.28 "/>
     <polygon id="163" class="fil113" points="741.94,0 743.65,0 743.65,132.28 741.94,132.28 "/>
     <polygon id="164" class="fil113" points="743.08,0 744.79,0 744.79,132.28 743.08,132.28 "/>
     <polygon id="165" class="fil114" points="744.22,0 745.93,0 745.93,132.28 744.22,132.28 "/>
     <polygon id="166" class="fil115" points="745.36,0 747.07,0 747.07,132.28 745.36,132.28 "/>
     <polygon id="167" class="fil115" points="746.5,0 748.21,0 748.21,132.28 746.5,132.28 "/>
     <polygon id="168" class="fil116" points="747.64,0 749.35,0 749.35,132.28 747.64,132.28 "/>
     <polygon id="169" class="fil117" points="748.78,0 750.49,0 750.49,132.28 748.78,132.28 "/>
     <polygon id="170" class="fil117" points="749.92,0 751.63,0 751.63,132.28 749.92,132.28 "/>
     <polygon id="171" class="fil118" points="751.06,0 752.77,0 752.77,132.28 751.06,132.28 "/>
     <polygon id="172" class="fil119" points="752.2,0 753.91,0 753.91,132.28 752.2,132.28 "/>
     <polygon id="173" class="fil120" points="753.34,0 755.05,0 755.05,132.28 753.34,132.28 "/>
     <polygon id="174" class="fil120" points="754.48,0 756.19,0 756.19,132.28 754.48,132.28 "/>
     <polygon id="175" class="fil121" points="755.62,0 757.33,0 757.33,132.28 755.62,132.28 "/>
     <polygon id="176" class="fil122" points="756.76,0 758.47,0 758.47,132.28 756.76,132.28 "/>
     <polygon id="177" class="fil123" points="757.9,0 759.61,0 759.61,132.28 757.9,132.28 "/>
     <polygon id="178" class="fil124" points="759.04,0 760.75,0 760.75,132.28 759.04,132.28 "/>
     <polygon id="179" class="fil125" points="760.18,0 761.89,0 761.89,132.28 760.18,132.28 "/>
     <polygon id="180" class="fil125" points="761.32,0 763.03,0 763.03,132.28 761.32,132.28 "/>
     <polygon id="181" class="fil126" points="762.46,0 764.17,0 764.17,132.28 762.46,132.28 "/>
     <polygon id="182" class="fil127" points="763.6,0 765.31,0 765.31,132.28 763.6,132.28 "/>
     <polygon id="183" class="fil127" points="764.74,0 766.45,0 766.45,132.28 764.74,132.28 "/>
     <polygon id="184" class="fil128" points="765.88,0 767.59,0 767.59,132.28 765.88,132.28 "/>
     <polygon id="185" class="fil129" points="767.02,0 768.73,0 768.73,132.28 767.02,132.28 "/>
     <polygon id="186" class="fil130" points="768.16,0 769.86,0 769.87,132.28 768.16,132.28 "/>
     <polygon id="187" class="fil131" points="769.3,0 771.01,0 771.01,132.28 769.3,132.28 "/>
     <polygon id="188" class="fil132" points="770.44,0 772.15,0 772.15,132.28 770.44,132.28 "/>
     <polygon id="189" class="fil133" points="771.57,0 773.28,0 773.29,132.28 771.58,132.28 "/>
     <polygon id="190" class="fil133" points="772.71,0 774.42,0 774.43,132.28 772.72,132.28 "/>
     <polygon id="191" class="fil134" points="773.86,0 775.56,0 775.57,132.28 773.86,132.28 "/>
     <polygon id="192" class="fil135" points="774.99,0 776.7,0 776.71,132.28 775,132.28 "/>
     <polygon id="193" class="fil136" points="776.13,0 777.84,0 777.85,132.28 776.14,132.28 "/>
     <polygon id="194" class="fil137" points="777.27,0 778.98,0 778.99,132.28 777.28,132.28 "/>
     <polygon id="195" class="fil138" points="778.41,0 780.12,0 780.13,132.28 778.42,132.28 "/>
     <polygon id="196" class="fil138" points="779.55,0 781.26,0 781.27,132.28 779.56,132.28 "/>
     <polygon id="197" class="fil139" points="780.69,0 782.4,0 782.41,132.28 780.7,132.28 "/>
     <polygon id="198" class="fil140" points="781.83,0 783.54,0 783.55,132.28 781.84,132.28 "/>
     <polygon id="199" class="fil140" points="782.97,0 784.68,0 784.68,132.28 782.98,132.28 "/>
     <polygon id="200" class="fil141" points="784.11,0 785.82,0 785.82,132.28 784.12,132.28 "/>
     <polygon id="201" class="fil142" points="785.25,0 786.96,0 786.97,132.28 785.26,132.28 "/>
     <polygon id="202" class="fil143" points="786.39,0 788.1,0 788.1,132.28 786.39,132.28 "/>
     <polygon id="203" class="fil143" points="787.53,0 789.24,0 789.24,132.28 787.53,132.28 "/>
     <polygon id="204" class="fil144" points="788.67,0 790.38,0 790.38,132.28 788.68,132.28 "/>
     <polygon id="205" class="fil145" points="789.81,0 791.52,0 791.52,132.28 789.81,132.28 "/>
     <polygon id="206" class="fil145" points="790.95,0 792.66,0 792.66,132.28 790.95,132.28 "/>
     <polygon id="207" class="fil146" points="792.09,0 793.8,0 793.8,132.28 792.09,132.28 "/>
     <polygon id="208" class="fil147" points="793.23,0 794.94,0 794.94,132.28 793.23,132.28 "/>
     <polygon id="209" class="fil147" points="794.37,0 796.08,0 796.08,132.28 794.37,132.28 "/>
     <polygon id="210" class="fil148" points="795.51,0 797.22,0 797.22,132.28 795.51,132.28 "/>
     <polygon id="211" class="fil149" points="796.65,0 798.36,0 798.36,132.28 796.65,132.28 "/>
     <polygon id="212" class="fil149" points="797.79,0 799.5,0 799.5,132.28 797.79,132.28 "/>
     <polygon id="213" class="fil150" points="798.93,0 800.64,0 800.64,132.28 798.93,132.28 "/>
     <polygon id="214" class="fil151" points="800.07,0 801.78,0 801.78,132.28 800.07,132.28 "/>
     <polygon id="215" class="fil152" points="801.21,0 802.92,0 802.92,132.28 801.21,132.28 "/>
     <polygon id="216" class="fil153" points="802.35,0 804.06,0 804.06,132.28 802.35,132.28 "/>
     <polygon id="217" class="fil154" points="803.49,0 805.2,0 805.2,132.28 803.49,132.28 "/>
     <polygon id="218" class="fil155" points="804.63,0 806.34,0 806.34,132.28 804.63,132.28 "/>
     <polygon id="219" class="fil155" points="805.77,0 807.48,0 807.48,132.28 805.77,132.28 "/>
     <polygon id="220" class="fil156" points="806.91,0 808.62,0 808.62,132.28 806.91,132.28 "/>
     <polygon id="221" class="fil157" points="808.05,0 809.76,0 809.76,132.28 808.05,132.28 "/>
     <polygon id="222" class="fil158" points="809.19,0 810.9,0 810.9,132.28 809.19,132.28 "/>
     <polygon id="223" class="fil159" points="810.33,0 812.04,0 812.04,132.28 810.33,132.28 "/>
     <polygon id="224" class="fil160" points="811.47,0 813.18,0 813.18,132.28 811.47,132.28 "/>
     <polygon id="225" class="fil160" points="812.61,0 814.32,0 814.32,132.28 812.61,132.28 "/>
     <polygon id="226" class="fil161" points="813.75,0 815.46,0 815.46,132.28 813.75,132.28 "/>
     <polygon id="227" class="fil162" points="814.89,0 816.6,0 816.6,132.28 814.89,132.28 "/>
     <polygon id="228" class="fil163" points="816.03,0 817.74,0 817.74,132.28 816.03,132.28 "/>
     <polygon id="229" class="fil164" points="817.17,0 818.88,0 818.88,132.28 817.17,132.28 "/>
     <polygon id="230" class="fil165" points="818.31,0 820.02,0 820.02,132.28 818.31,132.28 "/>
     <polygon id="231" class="fil166" points="819.45,0 821.16,0 821.16,132.28 819.45,132.28 "/>
     <polygon id="232" class="fil166" points="820.59,0 822.3,0 822.3,132.28 820.59,132.28 "/>
     <polygon id="233" class="fil167" points="821.73,0 823.44,0 823.44,132.28 821.73,132.28 "/>
     <polygon id="234" class="fil168" points="822.87,0 824.58,0 824.58,132.28 822.87,132.28 "/>
     <polygon id="235" class="fil168" points="824.01,0 825.72,0 825.72,132.28 824.01,132.28 "/>
     <polygon id="236" class="fil169" points="825.15,0 826.86,0 826.86,132.28 825.15,132.28 "/>
     <polygon id="237" class="fil170" points="826.29,0 828,0 828,132.28 826.29,132.28 "/>
     <polygon id="238" class="fil170" points="827.43,0 829.14,0 829.14,132.28 827.43,132.28 "/>
     <polygon id="239" class="fil171" points="828.57,0 830.28,0 830.28,132.28 828.57,132.28 "/>
     <polygon id="240" class="fil172" points="829.71,0 831.42,0 831.42,132.28 829.71,132.28 "/>
     <polygon id="241" class="fil172" points="830.85,0 832.56,0 832.56,132.28 830.85,132.28 "/>
     <polygon id="242" class="fil173" points="831.99,0 833.7,0 833.7,132.28 831.99,132.28 "/>
     <polygon id="243" class="fil174" points="833.13,0 834.84,0 834.84,132.28 833.13,132.28 "/>
     <polygon id="244" class="fil175" points="834.27,0 835.98,0 835.98,132.28 834.27,132.28 "/>
     <polygon id="245" class="fil175" points="835.41,0 837.12,0 837.12,132.28 835.41,132.28 "/>
     <polygon id="246" class="fil176" points="836.54,0 838.25,0 838.26,132.28 836.55,132.28 "/>
     <polygon id="247" class="fil177" points="837.69,0 839.39,0 839.4,132.28 837.69,132.28 "/>
     <polygon id="248" class="fil178" points="838.82,0 840.53,0 840.54,132.28 838.83,132.28 "/>
     <polygon id="249" class="fil179" points="839.96,0 841.67,0 841.68,132.28 839.97,132.28 "/>
     <polygon id="250" class="fil180" points="841.1,0 842.81,0 842.82,132.28 841.11,132.28 "/>
     <polygon id="251" class="fil180" points="842.24,0 843.95,0 843.96,132.28 842.25,132.28 "/>
     <polygon id="252" class="fil181" points="843.38,0 845.09,0 845.1,132.28 843.39,132.28 "/>
     <polygon id="253" class="fil182" points="844.52,0 846.23,0 846.24,132.28 844.53,132.28 "/>
     <polygon id="254" class="fil182" points="845.66,0 847.37,0 847.38,132.28 845.67,132.28 "/>
     <polygon id="255" class="fil183" points="846.8,0 848.51,0 848.52,132.28 846.81,132.28 "/>
     <polygon id="256" class="fil184" points="847.94,0 849.65,0 849.65,132.28 847.95,132.28 "/>
     <polygon id="257" class="fil185" points="849.08,0 850.79,0 850.8,132.28 849.09,132.28 "/>
     <polygon id="258" class="fil186" points="850.22,0 851.93,0 851.94,132.28 850.23,132.28 "/>
     <polygon id="259" class="fil187" points="851.36,0 853.07,0 853.07,132.28 851.36,132.28 "/>
     <polygon id="260" class="fil188" points="852.5,0 854.21,0 854.21,132.28 852.5,132.28 "/>
     <polygon id="261" class="fil188" points="853.64,0 855.35,0 855.36,132.28 853.65,132.28 "/>
     <polygon id="262" class="fil189" points="854.78,0 856.49,0 856.49,132.28 854.78,132.28 "/>
     <polygon id="263" class="fil190" points="855.92,0 857.63,0 857.63,132.28 855.92,132.28 "/>
     <polygon id="264" class="fil191" points="857.06,0 858.77,0 858.77,132.28 857.06,132.28 "/>
     <polygon id="265" class="fil192" points="858.2,0 859.91,0 859.91,132.28 858.2,132.28 "/>
     <polygon id="266" class="fil193" points="859.34,0 861.05,0 861.05,132.28 859.34,132.28 "/>
     <polygon id="267" class="fil193" points="860.48,0 862.19,0 862.19,132.28 860.48,132.28 "/>
     <polygon id="268" class="fil194" points="861.62,0 863.33,0 863.33,132.28 861.62,132.28 "/>
     <polygon id="269" class="fil195" points="862.76,0 864.47,0 864.47,132.28 862.76,132.28 "/>
     <polygon id="270" class="fil196" points="863.9,0 865.61,0 865.61,132.28 863.9,132.28 "/>
     <polygon id="271" class="fil197" points="865.04,0 866.75,0 866.75,132.28 865.04,132.28 "/>
     <polygon id="272" class="fil198" points="866.18,0 867.89,0 867.89,132.28 866.18,132.28 "/>
     <polygon id="273" class="fil199" points="867.32,0 869.03,0 869.03,132.28 867.32,132.28 "/>
     <polygon id="274" class="fil200" points="868.46,0 870.17,0 870.17,132.28 868.46,132.28 "/>
     <polygon id="275" class="fil201" points="869.6,0 871.31,0 871.31,132.28 869.6,132.28 "/>
     <polygon id="276" class="fil202" points="870.74,0 872.45,0 872.45,132.28 870.74,132.28 "/>
     <polygon id="277" class="fil202" points="871.88,0 873.59,0 873.59,132.28 871.88,132.28 "/>
     <polygon id="278" class="fil203" points="873.02,0 874.73,0 874.73,132.28 873.02,132.28 "/>
     <polygon id="279" class="fil202" points="874.16,0 874.16,0 874.16,132.28 874.16,132.28 "/>
    </g>
   </g>
   <polygon class="fil22" points="191.97,0 355.1,0 235.9,350.58 364.72,161.28 419.54,0 582.36,0 390.43,564.8 227.33,564.8 310.04,322.06 181.28,511.34 163.1,564.8 0,564.8 "/>
   <polygon class="fil204" points="680.92,165.42 817.96,165.42 682.18,564.8 545.19,564.8 592.66,425.16 545.05,425.16 497.57,564.8 362.38,564.8 498.14,165.42 633.33,165.42 589.6,294.17 637.18,294.17 "/>
  </g>
 </g>
</svg>
