<?xml version="1.0" encoding="UTF-8"?>
<!DOCTYPE svg PUBLIC "-//W3C//DTD SVG 1.1//EN" "http://www.w3.org/Graphics/SVG/1.1/DTD/svg11.dtd">
<!-- Creator: CorelDRAW X7 -->
<svg xmlns="http://www.w3.org/2000/svg" xml:space="preserve" width="2.1057mm" height="2.1056mm" version="1.1" style="shape-rendering:geometricPrecision; text-rendering:geometricPrecision; image-rendering:optimizeQuality; fill-rule:evenodd; clip-rule:evenodd"
viewBox="0 0 79 79"
 xmlns:xlink="http://www.w3.org/1999/xlink">
 <defs>
  <style type="text/css">
   <![CDATA[
    .fil1 {fill:#579442}
    .fil0 {fill:white}
   ]]>
  </style>
 </defs>
 <g id="Layer_x0020_1">
  <metadata id="CorelCorpID_0Corel-Layer"/>
  <path class="fil0" d="M39 79c-21,0 -39,-18 -39,-40 0,-21 18,-39 39,-39 22,0 40,18 40,39 0,22 -18,40 -40,40z"/>
  <g>
   <path class="fil1" d="M39 8c-17,0 -31,14 -31,31 0,18 14,32 31,32 18,0 32,-14 32,-32 0,-17 -14,-31 -32,-31l0 0zm0 71c-21,0 -39,-18 -39,-40 0,-21 18,-39 39,-39 22,0 40,18 40,39 0,22 -18,40 -40,40z"/>
  </g>
  <path class="fil1" d="M17 39c0,13 10,23 22,23l0 -45c-12,0 -22,10 -22,22z"/>
 </g>
</svg>
