<?xml version="1.0" encoding="UTF-8"?>
<!DOCTYPE svg PUBLIC "-//W3C//DTD SVG 1.1//EN" "http://www.w3.org/Graphics/SVG/1.1/DTD/svg11.dtd">
<svg xmlns="http://www.w3.org/2000/svg" xml:space="preserve" width="1506px" height="2339px" version="1.1" style="shape-rendering:geometricPrecision; text-rendering:geometricPrecision; image-rendering:optimizeQuality; fill-rule:evenodd; clip-rule:evenodd"
viewBox="0 0 726.44 1128.3"
 xmlns:xlink="http://www.w3.org/1999/xlink">
 <defs>
  <style type="text/css">
   <![CDATA[
    .str0 {stroke:black;stroke-width:1.14;stroke-miterlimit:22.9256;stroke-opacity:0.019608}
    .fil2 {fill:black}
    .fil0 {fill:#333333}
    .fil3 {fill:#F6F6F6;fill-opacity:0.019608}
    .fil1 {fill:url(#id0)}
   ]]>
  </style>
  <linearGradient id="id0" gradientUnits="userSpaceOnUse" x1="368.77" y1="1127.73" x2="368.77" y2="153.25">
   <stop offset="0" style="stop-opacity:1; stop-color:#E1BAED"/>
   <stop offset="1" style="stop-opacity:1; stop-color:#FEFEFE"/>
  </linearGradient>
 </defs>
 <g id="Layer_x0020_1">
  <metadata id="CorelCorpID_0Corel-Layer"/>
  <path class="fil0" d="M91.43 0.57l554.69 0c43.86,0 79.75,35.89 79.75,79.75l0 1047.41 -714.19 0 0 -669.12 -5.98 0c-3.14,0 -5.7,-2.56 -5.7,-5.7l0 -41.66c0,-3.13 2.56,-5.7 5.7,-5.7l5.98 0 0 -51.89 -5.98 0c-3.14,0 -5.7,-2.56 -5.7,-5.69l0 -43.47c0,-3.14 2.56,-5.7 5.7,-5.7l5.98 0 0 -51.2 -5.38 0c-3.13,0 -5.7,-2.56 -5.7,-5.7l0 -81.45c0,-3.13 2.57,-5.69 5.7,-5.69l5.38 0 0 -74.44c0,-43.86 35.89,-79.75 79.75,-79.75z"/>
  <rect class="fil1" x="42.62" y="153.25" width="652.32" height="974.48"/>
  <path class="fil2" d="M368.77 38.32c8.05,0 14.57,6.38 14.57,14.24 0,7.87 -6.52,14.24 -14.57,14.24 -8.04,0 -14.56,-6.37 -14.56,-14.24 0,-7.86 6.52,-14.24 14.56,-14.24zm-62.7 51.02l125.4 0c7.96,0 14.47,6.51 14.47,14.47l0 0c0,7.96 -6.51,14.47 -14.47,14.47l-125.4 0c-7.95,0 -14.46,-6.51 -14.46,-14.47l0 0c0,-7.96 6.51,-14.47 14.46,-14.47z"/>
 </g>
 <g id="Layer_x0020_4">
  <metadata id="CorelCorpID_1Corel-Layer"/>
  <path class="fil3 str0" d="M160.42 0.57l485.7 0c43.86,0 79.75,35.89 79.75,79.75l0 1047.41 -18.95 0 -546.5 -1127.16z"/>
 </g>
</svg>
