<svg xmlns="http://www.w3.org/2000/svg" width="100" height="100" viewBox="0 0 300 300" id="logo">

	<defs>
		<style>

			.sto {
			fill: #cff9ff;
			fill-opacity: ".2";
			stroke: #fff;
			stroke-width:6;
			stroke-miterlimit:5;
			stroke-dasharray: 1500;
			stroke-dashoffset:0;
			-webkit-animation: dash 3s linear forwards;
			-o-animation: dash 3s linear forwards;
			-moz-animation: dash 3s linear forwards;
			animation: dash 3s linear forwards;
			}

			@-webkit-keyframes dash {
				from {
					stroke-dashoffset:1500;
				}
				to {
					stroke-dashoffset:0;
				}
			}

		</style>

	</defs>


<g>
	<path class="sto" d="M9 140.6c-5.3 5.2-5.3 13.7 0 19L140.5 291c5.2 5.3 13.6 5.4 18.8 0L291 159.6c5.3-5.3 5.3-13.7 0-19-28.7-28.4-50-50.6-78-78.6-3-3-8-3-11 0l-85 84.4c-3 3-3 8 0 11l25.2 25c3 3.2 8 3.2 11 .2l3-3L194 142c3-3 7.8-3 10.8 0l5.4 5.4c3 3 3 8 0 11l-56.6 56.4c-3 3-7.8 3-10.8 0l-5.4-5.4-46.7-46.7-5.5-5.4c-3-3-3-8 0-11l5.5-5.3L183 48.6c4-4 3.5-12.5 0-16.2L159.3 9c-5.2-5.3-13.6-5.3-18.8 0z"/>
</g>
</svg>
